<?xml version="1.0" encoding="utf-8"?>
<!-- Generator: Adobe Illustrator 27.7.0, SVG Export Plug-In . SVG Version: 6.00 Build 0)  -->
<svg version="1.1" id="Layer_1" xmlns="http://www.w3.org/2000/svg" xmlns:xlink="http://www.w3.org/1999/xlink" x="0px" y="0px"
	 viewBox="0 0 67.1 113.4" style="enable-background:new 0 0 67.1 113.4;" xml:space="preserve">
<style type="text/css">
	.st0{fill:#F8D448;}
	.st1{fill:#225CB4;}
	.st2{fill:#FFFFFF;}
	.st3{fill:#BE1E2D;}
</style>
<g>
	<g>
		<polygon class="st0" points="33.6,101.8 16.7,113.2 16.7,0.2 33.6,0.2 		"/>
		<polygon class="st1" points="50.6,113.2 33.6,101.8 33.6,0.2 50.6,0.2 		"/>
	</g>
	<path class="st2" d="M66.3,26.4c-12.1-5.1-30.8-4.7-32.7-0.2c-2-4.6-20.6-4.9-32.7,0.2L0.6,70c21.4-0.2,26.2-9.3,33-0.2
		c6.8-9.1,11.6,0,33,0.2L66.3,26.4z"/>
	<path class="st3" d="M63.9,67.1C44.1,67,39.9,59,33.6,67c-6.3-8-10.5,0-30.3,0.2V29c11.2-4.5,28.5-4.1,30.3-0.1
		c1.8-4,19.1-4.3,30.3,0.1C63.9,29,63.9,67.1,63.9,67.1z M60.8,31.1c-10.1-3.9-25.5-3.6-27.1-0.1c-1.6-3.5-17.1-3.8-27.1,0.1
		L6.3,64.6c17.7-0.1,21.6-7.2,27.3-0.2c5.7-7,9.6,0,27.3,0.2L60.8,31.1z M17.8,34.2c0-0.4,0.4-0.8,0.8-0.8h2.6
		c0.4,0,0.8,0.4,0.8,0.8V52c0,1.3-0.2,2.4-0.7,3.3c-0.5,0.9-1.1,1.6-2,2.1s-1.9,0.7-3.2,0.7c-1.2,0-2.3-0.2-3.2-0.7s-1.6-1.2-2-2.1
		c-0.5-0.9-0.7-2-0.7-3.3V34.2c0-0.4,0.4-0.8,0.8-0.8h2.6c0.4,0,0.8,0.4,0.8,0.8v17.9c0,0.6,0.1,1.1,0.4,1.4
		c0.3,0.3,0.7,0.5,1.2,0.5s0.9-0.2,1.2-0.5c0.3-0.3,0.4-0.8,0.4-1.4V34.2H17.8z M28.1,33.4h-2.6c-0.4,0-0.8,0.4-0.8,0.8v23
		c0,0.4,0.4,0.8,0.8,0.8h0.9h2.5h5.6c0.4,0,0.8-0.4,0.8-0.8v-2.4c0-0.4-0.4-0.8-0.8-0.8h-4.8c-0.4,0-0.8-0.4-0.8-0.8v-19
		C28.9,33.7,28.5,33.4,28.1,33.4z M46.9,46.9l3.3,10c0.2,0.5-0.2,1.1-0.8,1.1h-2.8c-0.4,0-0.7-0.2-0.8-0.6l-2.7-9.2
		c-0.1-0.3-0.4-0.6-0.8-0.6l0,0c-0.4,0-0.8,0.4-0.8,0.8v8.8c0,0.4-0.4,0.8-0.8,0.8h-2.5c-0.4,0-0.8-0.4-0.8-0.8v-23
		c0-0.4,0.4-0.8,0.8-0.8h1.1h2.2h1.9c1.3,0,2.5,0.2,3.4,0.7c0.9,0.4,1.7,1.1,2.2,1.9c0.5,0.8,0.7,1.8,0.7,3v2.9
		c0,1.2-0.2,2.2-0.7,3.1C48.6,45.8,47.8,46.5,46.9,46.9L46.9,46.9z M41.6,42.8c0,0.4,0.4,0.8,0.8,0.8h1.4c0.4,0,0.7-0.1,0.9-0.2
		c0.3-0.1,0.5-0.3,0.6-0.6c0.1-0.2,0.2-0.5,0.2-0.9v-2.7c0-0.4-0.1-0.7-0.2-1c-0.1-0.3-0.3-0.5-0.6-0.6s-0.6-0.2-0.9-0.2h-1.4
		c-0.4,0-0.8,0.4-0.8,0.8V42.8z M52.8,34.2v23c0,0.4,0.4,0.8,0.8,0.8h2.6c0.4,0,0.8-0.4,0.8-0.8v-23c0-0.4-0.4-0.8-0.8-0.8h-2.6
		C53.1,33.4,52.8,33.7,52.8,34.2z"/>
</g>
</svg>
